<svg width="24" height="24" viewBox="0 0 24 24" fill="none" xmlns="http://www.w3.org/2000/svg">
<path d="M13 18L8 6L3 18M11 14H5M21 18V15M21 15V12M21 15C21 15.7956 20.6839 16.5587 20.1213 17.1213C19.5587 17.6839 18.7956 18 18 18C17.2044 18 16.4413 17.6839 15.8787 17.1213C15.3161 16.5587 15 15.7956 15 15C15 14.2044 15.3161 13.4413 15.8787 12.8787C16.4413 12.3161 17.2044 12 18 12C18.7956 12 19.5587 12.3161 20.1213 12.8787C20.6839 13.4413 21 14.2044 21 15Z" stroke="#16161B" stroke-width="2" stroke-linecap="round" stroke-linejoin="round"/>
</svg>
