<svg width="90" height="23" viewBox="0 0 90 23" fill="none" xmlns="http://www.w3.org/2000/svg">
<path d="M15.184 8.14C14.68 7.16933 13.98 6.44133 13.084 5.956C12.188 5.452 11.152 5.2 9.976 5.2C8.688 5.2 7.54 5.48933 6.532 6.068C5.524 6.64667 4.73067 7.468 4.152 8.532C3.592 9.596 3.312 10.828 3.312 12.228C3.312 13.628 3.592 14.8693 4.152 15.952C4.73067 17.016 5.524 17.8373 6.532 18.416C7.54 18.9947 8.688 19.284 9.976 19.284C11.712 19.284 13.1213 18.7987 14.204 17.828C15.2867 16.8573 15.9493 15.5413 16.192 13.88H8.884V11.332H19.608V13.824C19.4027 15.336 18.8613 16.7267 17.984 17.996C17.1253 19.2653 15.996 20.2827 14.596 21.048C13.2147 21.7947 11.6747 22.168 9.976 22.168C8.14667 22.168 6.476 21.748 4.964 20.908C3.452 20.0493 2.248 18.864 1.352 17.352C0.474667 15.84 0.036 14.132 0.036 12.228C0.036 10.324 0.474667 8.616 1.352 7.104C2.248 5.592 3.452 4.416 4.964 3.576C6.49467 2.71733 8.16533 2.288 9.976 2.288C12.048 2.288 13.8867 2.80133 15.492 3.828C17.116 4.836 18.292 6.27333 19.02 8.14H15.184ZM30.7363 6.32C31.9123 6.32 32.9576 6.572 33.8723 7.076C34.8056 7.58 35.5336 8.32667 36.0563 9.316C36.5976 10.3053 36.8683 11.5 36.8683 12.9V22H33.7043V13.376C33.7043 11.9947 33.3589 10.94 32.6683 10.212C31.9776 9.46533 31.0349 9.092 29.8403 9.092C28.6456 9.092 27.6936 9.46533 26.9843 10.212C26.2936 10.94 25.9483 11.9947 25.9483 13.376V22H22.7563V1.28H25.9483V8.364C26.4896 7.71067 27.1709 7.20667 27.9923 6.852C28.8323 6.49733 29.7469 6.32 30.7363 6.32ZM47.6318 22.252C46.1758 22.252 44.8598 21.9253 43.6838 21.272C42.5078 20.6 41.5838 19.6667 40.9118 18.472C40.2398 17.2587 39.9038 15.8587 39.9038 14.272C39.9038 12.704 40.2492 11.3133 40.9398 10.1C41.6305 8.88667 42.5732 7.95333 43.7678 7.3C44.9625 6.64667 46.2972 6.32 47.7718 6.32C49.2465 6.32 50.5812 6.64667 51.7758 7.3C52.9705 7.95333 53.9132 8.88667 54.6038 10.1C55.2945 11.3133 55.6398 12.704 55.6398 14.272C55.6398 15.84 55.2852 17.2307 54.5758 18.444C53.8665 19.6573 52.8958 20.6 51.6638 21.272C50.4505 21.9253 49.1065 22.252 47.6318 22.252ZM47.6318 19.48C48.4532 19.48 49.2185 19.284 49.9278 18.892C50.6558 18.5 51.2438 17.912 51.6918 17.128C52.1398 16.344 52.3638 15.392 52.3638 14.272C52.3638 13.152 52.1492 12.2093 51.7198 11.444C51.2905 10.66 50.7212 10.072 50.0118 9.68C49.3025 9.288 48.5372 9.092 47.7158 9.092C46.8945 9.092 46.1292 9.288 45.4198 9.68C44.7292 10.072 44.1785 10.66 43.7678 11.444C43.3572 12.2093 43.1518 13.152 43.1518 14.272C43.1518 15.9333 43.5718 17.2213 44.4118 18.136C45.2705 19.032 46.3438 19.48 47.6318 19.48ZM64.8993 14.3L72.0113 22H67.6993L61.9873 15.364V22H58.7953V1.28H61.9873V13.32L67.5873 6.572H72.0113L64.8993 14.3ZM75.9232 4.528C75.3446 4.528 74.8592 4.332 74.4672 3.94C74.0752 3.548 73.8792 3.06267 73.8792 2.484C73.8792 1.90533 74.0752 1.42 74.4672 1.028C74.8592 0.635999 75.3446 0.439999 75.9232 0.439999C76.4832 0.439999 76.9592 0.635999 77.3512 1.028C77.7432 1.42 77.9392 1.90533 77.9392 2.484C77.9392 3.06267 77.7432 3.548 77.3512 3.94C76.9592 4.332 76.4832 4.528 75.9232 4.528ZM77.4912 6.572V22H74.2992V6.572H77.4912ZM85.406 9.176V17.716C85.406 18.2947 85.5367 18.7147 85.798 18.976C86.078 19.2187 86.5447 19.34 87.198 19.34H89.158V22H86.638C85.2007 22 84.0994 21.664 83.334 20.992C82.5687 20.32 82.186 19.228 82.186 17.716V9.176H80.366V6.572H82.186V2.736H85.406V6.572H89.158V9.176H85.406Z" fill="white"/>
</svg>
